<svg width="85" height="33" viewBox="0 0 85 33" fill="none" xmlns="http://www.w3.org/2000/svg">
<rect width="85" height="33" rx="5" fill="#D2D2D6"/>
<path fill-rule="evenodd" clip-rule="evenodd" d="M25.3968 22.1159C25.2009 22.8398 24.9214 23.216 24.0197 23.4241C22.0227 23.8052 20.0256 23.9033 18.0284 23.9032C16.0315 23.9033 14.0344 23.8052 12.0373 23.4241C11.1358 23.216 10.8562 22.8398 10.6602 22.116C10.2652 20.0888 10.1641 18.0614 10.1645 16.0341C10.164 14.0068 10.2652 11.9795 10.6603 9.95222C10.8562 9.22825 11.1358 8.85212 12.0374 8.64399C14.0345 8.26296 16.0315 8.16487 18.0285 8.16487C20.0257 8.16476 22.0228 8.26296 24.0198 8.64399C24.9215 8.85212 25.2009 9.22846 25.3969 9.95222C25.7921 11.9795 25.8931 14.0068 25.8926 16.0341C25.8932 18.0614 25.7921 20.0888 25.3968 22.1159ZM28.0571 16.025H28.0568C28.0558 13.8742 27.8647 11.7232 27.4783 9.57247C27.2355 8.15089 26.1165 6.9115 24.5733 6.59514C22.3965 6.19863 20.2197 6.00203 18.0428 6.00032V6C18.0379 6 18.0332 6.00011 18.0284 6.00011C18.0237 6.00011 18.019 6 18.0143 6V6.00032C15.8376 6.00203 13.6606 6.19852 11.4838 6.59514C9.94062 6.9115 8.82163 8.15099 8.57881 9.57247C8.19233 11.7232 8.00128 13.8742 8.00032 16.025H8C8 16.028 8.00011 16.0311 8.00011 16.0341C8.00011 16.0371 8 16.0403 8 16.0432H8.00032C8.00128 18.1939 8.19233 20.3449 8.57881 22.4957C8.82163 23.9171 9.94062 25.1567 11.4838 25.4731C13.6606 25.8694 15.8374 26.0662 18.0143 26.068V26.0681C18.019 26.0681 18.0237 26.0681 18.0284 26.0681C18.0333 26.068 18.038 26.0682 18.0428 26.0682V26.0676C20.2197 26.0662 22.3965 25.8696 24.5733 25.473C26.1165 25.1565 27.2356 23.917 27.4783 22.4956C27.8647 20.3446 28.0558 18.1938 28.0568 16.0431H28.0571C28.0571 16.04 28.057 16.037 28.057 16.034C28.0571 16.031 28.0571 16.028 28.0571 16.025Z" fill="#BABAC0"/>
<path fill-rule="evenodd" clip-rule="evenodd" d="M23.1258 19.3822L19.8113 16.043L21.298 14.5452C21.4104 14.464 21.5091 14.3657 21.5887 14.2522L22.8277 13.004C23.1395 12.7052 23.3869 12.4042 23.3869 11.9721C23.3869 11.291 22.8347 10.7389 22.1538 10.7389C21.7662 10.7389 21.4505 10.9327 21.1899 11.1729L21.1824 11.1848L19.6135 12.7651L19.6078 12.7593L18.0799 14.2987L16.5521 12.7594L16.5461 12.7652L14.9777 11.1849L14.97 11.1778C14.6652 10.8885 14.3937 10.7389 14.0061 10.7389C13.3251 10.7389 12.7731 11.291 12.7731 11.9721C12.7731 12.4042 13.0451 12.6953 13.3322 13.004L14.5711 14.2522C14.6508 14.3656 14.7495 14.464 14.862 14.5452L16.3486 16.043L13.0342 19.3822L13.0318 19.3753C12.8606 19.587 12.7725 19.876 12.7725 20.1696C12.7725 20.8505 13.3245 21.4028 14.0055 21.4028C14.4407 21.4025 14.7581 21.1572 15.0417 20.8364L16.2285 19.6408C16.3837 19.5441 16.5172 19.4157 16.6162 19.262L18.0799 17.7874L19.5436 19.262C19.6428 19.4158 19.7762 19.5441 19.9314 19.641L21.1182 20.8365C21.3919 21.108 21.7193 21.4029 22.1544 21.4029C22.8354 21.4027 23.3875 20.8507 23.3875 20.1697C23.3875 19.8762 23.3041 19.5969 23.1328 19.3853L23.1258 19.3822ZM76.9771 20.6739C76.9616 20.5532 76.9383 20.4559 76.9074 20.3814C76.8765 20.3074 76.8378 20.2532 76.7912 20.2191C76.7448 20.185 76.6941 20.168 76.6381 20.168H71.5249V16.7795H75.9421C75.9979 16.7795 76.0488 16.7641 76.0952 16.7331C76.1418 16.7022 76.1803 16.6512 76.2113 16.5799C76.2424 16.5087 76.2656 16.4144 76.2809 16.2966C76.2964 16.1791 76.3043 16.0307 76.3043 15.851C76.3043 15.6778 76.2965 15.5308 76.2809 15.4101C76.2656 15.2893 76.2422 15.1936 76.2113 15.1224C76.1805 15.0512 76.1415 14.9986 76.0952 14.9644C76.0488 14.9304 75.9979 14.9135 75.9421 14.9135H71.5249V11.98H76.601C76.6569 11.98 76.7061 11.9631 76.7498 11.9291C76.7929 11.8951 76.8299 11.8409 76.8609 11.7666C76.892 11.6923 76.9151 11.5948 76.9305 11.4741C76.946 11.3534 76.9539 11.2065 76.9539 11.0332C76.9539 10.8475 76.9461 10.6943 76.9305 10.5736C76.9151 10.4528 76.892 10.3541 76.8609 10.2765C76.8301 10.1992 76.7929 10.1451 76.7498 10.1141C76.7061 10.0831 76.6569 10.0676 76.601 10.0676H69.8169C69.6129 10.0676 69.4408 10.1281 69.3015 10.2488C69.1623 10.3694 69.0927 10.566 69.0927 10.8382V21.3099C69.0927 21.5823 69.1623 21.7787 69.3015 21.8994C69.4408 22.0201 69.6128 22.0804 69.8169 22.0804H76.6381C76.694 22.0804 76.7448 22.0635 76.7912 22.0293C76.8378 21.9955 76.8765 21.941 76.9074 21.8667C76.9384 21.7927 76.9616 21.6951 76.9771 21.5744C76.9926 21.4536 77.0002 21.3037 77.0002 21.1241C77.0003 20.9448 76.9926 20.7946 76.9771 20.6739ZM65.1388 10.9953C65.0575 10.9111 64.9149 10.812 64.7103 10.6977C64.5056 10.5834 64.2486 10.4768 63.9388 10.3778C63.6293 10.2785 63.2672 10.1942 62.8524 10.1251C62.4372 10.0561 61.9777 10.0215 61.4724 10.0215C60.5523 10.0215 59.7185 10.1627 58.9699 10.4452C58.2214 10.728 57.582 11.1351 57.0536 11.6672C56.5244 12.1993 56.1153 12.8456 55.8267 13.6062C55.538 14.3668 55.3937 15.225 55.3937 16.1812C55.3938 17.107 55.5292 17.9351 55.7996 18.6656C56.0706 19.3963 56.4608 20.0156 56.9723 20.5235C57.4832 21.0317 58.1068 21.4195 58.8433 21.6869C59.5798 21.9545 60.4142 22.0883 61.3464 22.0883C61.6649 22.0883 61.9821 22.0733 62.2979 22.0432C62.6135 22.0131 62.9259 21.9679 63.2356 21.9079C63.5453 21.8479 63.8444 21.7758 64.133 21.6915C64.4215 21.6073 64.6637 21.5261 64.859 21.4479C65.0541 21.3699 65.1835 21.2632 65.2471 21.1279C65.31 20.9925 65.3415 20.8347 65.3415 20.6545V15.8523C65.3415 15.7319 65.3261 15.6252 65.2962 15.5321C65.2664 15.4388 65.2227 15.3592 65.1656 15.2931C65.1083 15.227 65.0425 15.1774 64.9672 15.1442C64.892 15.1112 64.8063 15.0947 64.7102 15.0947H60.7691C60.7149 15.0947 60.6667 15.1114 60.6247 15.1442C60.5827 15.1774 60.5461 15.2286 60.5162 15.2977C60.4865 15.3668 60.4637 15.4586 60.4488 15.5728C60.4339 15.6869 60.426 15.8283 60.426 15.9965C60.4262 16.3211 60.456 16.5512 60.5161 16.6864C60.5764 16.8217 60.6604 16.8893 60.769 16.8893H62.9784V19.7523C62.7561 19.8727 62.5156 19.963 62.2567 20.023C61.9985 20.083 61.737 20.1131 61.4721 20.1131C60.9314 20.1131 60.4365 20.026 59.9887 19.8515C59.5409 19.6772 59.1576 19.4186 58.8386 19.076C58.5201 18.7333 58.2718 18.308 58.0949 17.7998C57.9175 17.2918 57.8285 16.704 57.8285 16.0368C57.8285 15.4294 57.9158 14.8747 58.0899 14.3728C58.2646 13.8707 58.514 13.4409 58.8386 13.083C59.1638 12.7254 59.554 12.4487 60.0113 12.2533C60.4682 12.058 60.9789 11.9602 61.5446 11.9602C62.0733 11.9602 62.5381 12.0143 62.9379 12.1225C63.3377 12.2308 63.6816 12.3481 63.9701 12.4742C64.2588 12.6006 64.4904 12.7178 64.6646 12.8259C64.8394 12.9341 64.9654 12.9882 65.0439 12.9882C65.0976 12.9882 65.1441 12.9733 65.1833 12.9433C65.2226 12.9132 65.2556 12.8607 65.2827 12.7853C65.3098 12.7103 65.3309 12.6096 65.3457 12.4833C65.3607 12.3569 65.3684 12.2068 65.3684 12.0323C65.3684 11.7318 65.3503 11.5046 65.3142 11.3514C65.2787 11.1981 65.2201 11.0796 65.1388 10.9953ZM45.8065 17.4657L47.4922 12.3979H47.5016L49.188 17.4657H45.8065ZM49.2891 10.5734C49.2522 10.4568 49.2079 10.3646 49.1554 10.2971C49.1034 10.2294 49.0172 10.1787 48.8978 10.1451C48.7777 10.1112 48.6101 10.0898 48.3952 10.0805C48.1801 10.0712 47.8915 10.0667 47.5293 10.0667C47.2158 10.0666 46.9642 10.0713 46.7735 10.0805C46.5832 10.0898 46.434 10.1112 46.3267 10.1451C46.2195 10.1788 46.141 10.228 46.0918 10.2924C46.0426 10.3568 45.9995 10.4414 45.963 10.5458L42.2862 21.1238C42.2126 21.3389 42.1666 21.5109 42.1478 21.6398C42.1296 21.7689 42.1512 21.8689 42.2125 21.9393C42.2739 22.01 42.3844 22.0545 42.5443 22.0728C42.7042 22.0913 42.9253 22.1006 43.2077 22.1006C43.4715 22.1005 43.6855 22.0943 43.8479 22.0821C44.0106 22.0697 44.1366 22.0467 44.2257 22.013C44.3147 21.9792 44.3794 21.9332 44.4192 21.8747C44.4595 21.8165 44.4915 21.7443 44.5159 21.6582L45.2717 19.327H49.7496L50.5513 21.7227C50.5757 21.8027 50.6066 21.8673 50.6436 21.9163C50.6808 21.9655 50.7449 22.0038 50.8372 22.0314C50.9291 22.059 51.0628 22.0775 51.2381 22.0866C51.4129 22.0959 51.6573 22.1006 51.9707 22.1006C52.2715 22.1005 52.5082 22.0928 52.6801 22.0775C52.852 22.0621 52.9715 22.0222 53.0395 21.9577C53.107 21.8933 53.1318 21.7964 53.113 21.6674C53.0949 21.5384 53.0484 21.3633 52.9748 21.1421L49.2891 10.5734ZM38.0762 14.7512C37.9893 15.0144 37.8628 15.2401 37.6952 15.4288C37.5283 15.6177 37.3133 15.7646 37.0505 15.8698C36.7873 15.975 36.4606 16.0275 36.0708 16.0275H34.4242V11.9521H36.0149C36.2688 11.9521 36.5147 11.9693 36.7531 12.0033C36.9914 12.0374 37.2185 12.1193 37.4353 12.2492C37.6521 12.3791 37.8345 12.5804 37.9833 12.8526C38.132 13.125 38.2061 13.4717 38.2061 13.8924C38.2062 14.2019 38.1631 14.4882 38.0762 14.7512ZM39.9606 11.3627C39.7007 11.0689 39.3867 10.8258 39.0184 10.634C38.6502 10.4422 38.2863 10.3107 37.9275 10.2393C37.5688 10.1683 37.2607 10.1219 37.0042 10.1001C36.747 10.0785 36.4762 10.0675 36.1919 10.0675H32.8093C32.5616 10.0675 32.3619 10.1404 32.2106 10.2858C32.0586 10.431 31.9827 10.6494 31.9827 10.9402V21.7461C31.9827 21.8079 32.0015 21.8636 32.0387 21.9132C32.0757 21.9627 32.1409 22.0029 32.2338 22.0339C32.3267 22.0649 32.4516 22.0895 32.6098 22.1082C32.7673 22.1266 32.9637 22.136 33.1991 22.136C33.4403 22.1359 33.6387 22.1266 33.7936 22.1082C33.9478 22.0895 34.0716 22.0649 34.1646 22.0339C34.2575 22.003 34.3238 21.9627 34.364 21.9132C34.4045 21.8636 34.4244 21.808 34.4244 21.7461V17.9121H35.978C36.7702 17.9121 37.4586 17.8191 38.0437 17.6335C38.6286 17.4477 39.1218 17.1771 39.5243 16.8211C39.9269 16.4654 40.2332 16.0273 40.4431 15.5075C40.6539 14.9878 40.759 14.3904 40.759 13.7159C40.759 13.2271 40.691 12.7861 40.5549 12.393C40.4184 12.0002 40.2205 11.6566 39.9606 11.3627Z" fill="#BABAC0"/>
</svg>
