<svg width="16" height="16" viewBox="0 0 16 16" fill="none" xmlns="http://www.w3.org/2000/svg">
<path d="M15.4334 14.6041L15.4336 14.6043C15.6638 14.8316 15.6638 15.2059 15.4336 15.4332L15.4334 15.4334C15.2029 15.6639 14.8315 15.6639 14.601 15.4334L14.601 15.4334L10.9197 11.7553L10.8877 11.7232L10.8527 11.752C9.74879 12.6574 8.33803 13.2 6.79688 13.2C3.25888 13.2 0.39375 10.3318 0.39375 6.79688C0.39375 3.26197 3.25888 0.39375 6.79688 0.39375C10.3318 0.39375 13.2 3.26199 13.2 6.79688C13.2 8.33799 12.6543 9.75188 11.7488 10.8558L11.7201 10.8908L11.7521 10.9229L15.4334 14.6041ZM1.575 6.79688C1.575 9.67451 3.91616 12.0156 6.79688 12.0156C9.67445 12.0156 12.0188 9.67453 12.0188 6.79688C12.0188 3.91926 9.67449 1.575 6.79688 1.575C3.91612 1.575 1.575 3.91928 1.575 6.79688Z" fill="black" stroke="white" stroke-width="0.1"/>
</svg>
