<svg width="70" height="70" viewBox="0 0 70 70" fill="none" xmlns="http://www.w3.org/2000/svg">
<g clip-path="url(#clip0)">
<path d="M58.3517 43.5148L58.2593 43.6551L58.3543 43.7936L69.0402 59.378L57.0154 57.1361L56.7696 57.0902L56.7238 57.336L54.4819 69.3608L44.4235 54.6919L44.3156 54.5346L44.1353 54.5971C41.2714 55.5911 38.1978 56.1326 34.9989 56.1326C31.8006 56.1326 28.727 55.5911 25.8625 54.5971L25.6823 54.5346L25.5744 54.6919L15.5165 69.3608L13.2741 57.336L13.2283 57.0902L12.9825 57.1361L0.957646 59.378L11.6436 43.7936L11.7386 43.6551L11.6462 43.5148C8.74762 39.1119 7.05763 33.8461 7.05763 28.1913C7.05763 12.7846 19.5922 0.25 34.9989 0.25C50.4057 0.25 62.9408 12.7846 62.9408 28.1913C62.9408 33.8461 61.2508 39.1119 58.3517 43.5148ZM17.3653 59.4982L17.4759 60.0915L17.8173 59.5938L22.1314 53.3031L22.2904 53.0713L22.0415 52.9404C19.108 51.3979 16.4797 49.3504 14.2749 46.9122L14.0625 46.6772L13.8833 46.9385L9.23915 53.7119L8.89783 54.2098L9.49119 54.0991L16.1278 52.861L17.3653 59.4982ZM52.6325 59.4982L53.8701 52.861L60.5072 54.0985L61.1006 54.2092L60.7592 53.7114L56.1151 46.9385L55.9359 46.6772L55.7235 46.9122C53.5187 49.3504 50.8904 51.3979 47.9568 52.9404L47.708 53.0712L47.867 53.3031L52.1806 59.5937L52.5219 60.0915L52.6325 59.4982ZM34.9989 3.8756C21.5911 3.8756 10.6832 14.7835 10.6832 28.1913C10.6832 41.5996 21.5911 52.5075 34.9989 52.5075C48.4073 52.5075 59.3152 41.5996 59.3152 28.1913C59.3152 14.7835 48.4073 3.8756 34.9989 3.8756Z" fill="#BF0B2A" stroke="white" stroke-width="0.5"/>
<path d="M29.7966 34.5595L29.9734 34.7362L30.1502 34.5595L46.7327 17.9781L49.2961 20.5415L29.9734 39.8637L20.7022 30.5925L23.2657 28.029L29.7966 34.5595Z" fill="#BF0B2A" stroke="white" stroke-width="0.5"/>
</g>
<defs>
<clipPath id="clip0">
<rect width="70" height="70" fill="white"/>
</clipPath>
</defs>
</svg>
