<svg width="19" height="19" viewBox="0 0 19 19" fill="none" xmlns="http://www.w3.org/2000/svg">
<g clip-path="url(#clip0)">
<path d="M9.5 0C5.59317 0 2.41479 3.17966 2.41479 7.08803C2.41479 12.9113 8.79477 18.5971 9.06646 18.8364C9.19031 18.9455 9.34513 19.0001 9.5 19.0001C9.65488 19.0001 9.8097 18.9455 9.93361 18.8364C10.2052 18.5972 16.5852 12.9113 16.5852 7.08803C16.5852 3.17966 13.4068 0 9.5 0ZM9.5 5.09821C10.5852 5.09821 11.4681 5.99083 11.4681 7.08803C11.4681 8.18524 10.5852 9.07786 9.5 9.07786C8.41476 9.07786 7.53187 8.18524 7.53187 7.08803C7.53187 5.99083 8.41476 5.09821 9.5 5.09821Z" fill="#BF0B2A"/>
</g>
<defs>
<clipPath id="clip0">
<rect width="19" height="19" fill="white"/>
</clipPath>
</defs>
</svg>
