<svg width="27" height="27" viewBox="0 0 27 27" fill="none" xmlns="http://www.w3.org/2000/svg">
<g clip-path="url(#clip0)">
<path d="M6.03711 7.94188C6.03711 3.8388 9.37591 0.5 13.479 0.5C17.5821 0.5 20.9209 3.8388 20.9209 7.94188V19.0581C20.9209 23.1612 17.5821 26.5 13.479 26.5C9.37591 26.5 6.03711 23.1612 6.03711 19.0581V7.94188ZM13.479 25.8801C17.241 25.8801 20.3009 22.8201 20.3009 19.0581V7.94188C20.3009 4.17991 17.241 1.11993 13.479 1.11993C9.71702 1.11993 6.65704 4.17991 6.65704 7.94188V19.0581C6.65704 22.8201 9.71702 25.8801 13.479 25.8801Z" fill="white" stroke="white"/>
<path d="M13.1694 6.18106C13.1694 6.00978 13.3081 5.87109 13.4794 5.87109C13.6507 5.87109 13.7894 6.00978 13.7894 6.18106V9.90913C13.7894 10.0802 13.6505 10.2191 13.4794 10.2191C13.3082 10.2191 13.1694 10.0803 13.1694 9.90913V6.18106Z" fill="white" stroke="white"/>
</g>
<defs>
<clipPath id="clip0">
<rect width="27" height="27" fill="white"/>
</clipPath>
</defs>
</svg>
