<svg width="28" height="28" viewBox="0 0 28 28" fill="none" xmlns="http://www.w3.org/2000/svg">
<path d="M22.6411 8.13477C22.9431 8.13477 23.188 7.88993 23.188 7.58789V1.64062C23.188 0.735984 22.452 0 21.5474 0H1.64111C0.736473 0 0.000488281 0.735984 0.000488281 1.64062V26.3594C0.000488281 27.264 0.736473 28 1.64111 28H21.5474C22.452 28 23.188 27.264 23.188 26.3594V22.3304C23.188 22.0284 22.9431 21.7836 22.6411 21.7836C22.3391 21.7836 22.0942 22.0284 22.0942 22.3304V26.3594C22.0942 26.6609 21.8489 26.9062 21.5474 26.9062H1.64111C1.33957 26.9062 1.09424 26.6609 1.09424 26.3594V1.64062C1.09424 1.33908 1.33957 1.09375 1.64111 1.09375H21.5474C21.8489 1.09375 22.0942 1.33908 22.0942 1.64062V7.58789C22.0942 7.88993 22.3391 8.13477 22.6411 8.13477Z" fill="white"/>
<path d="M11.594 2.95312C8.81975 2.95312 6.56274 5.21013 6.56274 7.98438C6.56274 9.42359 7.17032 10.7234 8.14223 11.6413C8.16044 11.6607 8.1798 11.6792 8.20096 11.696C9.09625 12.5151 10.2877 13.0156 11.5939 13.0156C12.9001 13.0156 14.0916 12.5151 14.9869 11.696C15.0081 11.6792 15.0274 11.6607 15.0456 11.6413C16.0177 10.7234 16.6252 9.42359 16.6252 7.98438C16.6252 5.21013 14.3682 2.95312 11.594 2.95312ZM11.594 11.9219C10.701 11.9219 9.87686 11.6226 9.21558 11.1197C9.69622 10.2674 10.5932 9.73438 11.594 9.73438C12.5948 9.73438 13.4917 10.2674 13.9724 11.1197C13.3111 11.6226 12.487 11.9219 11.594 11.9219ZM10.719 7.76562V7.41016C10.719 6.9277 11.1115 6.53516 11.594 6.53516C12.0764 6.53516 12.469 6.9277 12.469 7.41016V7.76562C12.469 8.24808 12.0764 8.64062 11.594 8.64062C11.1115 8.64062 10.719 8.24808 10.719 7.76562ZM14.7626 10.3186C14.3593 9.72043 13.8003 9.2552 13.1513 8.96798C13.4089 8.6351 13.5627 8.21811 13.5627 7.76562V7.41016C13.5627 6.32455 12.6796 5.44141 11.594 5.44141C10.5084 5.44141 9.62524 6.32455 9.62524 7.41016V7.76562C9.62524 8.21811 9.77908 8.6351 10.0367 8.96798C9.38768 9.2552 8.82872 9.72043 8.4254 10.3186C7.94256 9.66492 7.65649 8.85757 7.65649 7.98438C7.65649 5.81323 9.42284 4.04688 11.594 4.04688C13.7651 4.04688 15.5315 5.81323 15.5315 7.98438C15.5315 8.85757 15.2454 9.66492 14.7626 10.3186Z" fill="white"/>
<path d="M14.5471 23.9531H11.594C11.292 23.9531 11.0471 24.198 11.0471 24.5C11.0471 24.802 11.292 25.0469 11.594 25.0469H14.5471C14.8491 25.0469 15.094 24.802 15.094 24.5C15.094 24.198 14.8491 23.9531 14.5471 23.9531Z" fill="white"/>
<path d="M14.5471 20.8906H6.78149C6.47951 20.8906 6.23462 21.1355 6.23462 21.4375C6.23462 21.7395 6.47951 21.9844 6.78149 21.9844H14.5471C14.8491 21.9844 15.094 21.7395 15.094 21.4375C15.094 21.1355 14.8491 20.8906 14.5471 20.8906Z" fill="white"/>
<path d="M14.5471 17.8281H6.78149C6.47951 17.8281 6.23462 18.073 6.23462 18.375C6.23462 18.677 6.47951 18.9219 6.78149 18.9219H14.5471C14.8491 18.9219 15.094 18.677 15.094 18.375C15.094 18.073 14.8491 17.8281 14.5471 17.8281Z" fill="white"/>
<path d="M4.83244 14.9259C4.73078 14.8241 4.58969 14.7656 4.44531 14.7656C4.30143 14.7656 4.16034 14.8241 4.05867 14.9259C3.95695 15.0276 3.89844 15.1687 3.89844 15.3125C3.89844 15.4563 3.9569 15.5974 4.05867 15.6991C4.16094 15.8009 4.30143 15.8594 4.44531 15.8594C4.58969 15.8594 4.73023 15.8009 4.83244 15.6991C4.93416 15.5974 4.99273 15.4563 4.99273 15.3125C4.99273 15.1687 4.93422 15.0276 4.83244 14.9259Z" fill="white"/>
<path d="M4.83244 17.9884C4.73023 17.8866 4.58969 17.8281 4.44531 17.8281C4.30143 17.8281 4.16094 17.8866 4.05867 17.9884C3.95695 18.0901 3.89844 18.2312 3.89844 18.375C3.89844 18.5188 3.9569 18.6599 4.05867 18.7616C4.16094 18.8634 4.30143 18.9219 4.44531 18.9219C4.58969 18.9219 4.73023 18.8634 4.83244 18.7616C4.93416 18.6599 4.99273 18.5188 4.99273 18.375C4.99273 18.2312 4.93422 18.0901 4.83244 17.9884Z" fill="white"/>
<path d="M4.83244 21.0509C4.73023 20.9491 4.58969 20.8906 4.44531 20.8906C4.30143 20.8906 4.16094 20.9491 4.05867 21.0509C3.95695 21.1526 3.89844 21.2937 3.89844 21.4375C3.89844 21.5813 3.9569 21.7224 4.05867 21.8241C4.16034 21.9259 4.30143 21.9844 4.44531 21.9844C4.58969 21.9844 4.73078 21.9259 4.83244 21.8241C4.93416 21.7224 4.99273 21.5813 4.99273 21.4375C4.99273 21.2937 4.93422 21.1526 4.83244 21.0509Z" fill="white"/>
<path d="M14.5471 14.7656H6.78149C6.47951 14.7656 6.23462 15.0105 6.23462 15.3125C6.23462 15.6145 6.47951 15.8594 6.78149 15.8594H14.5471C14.8491 15.8594 15.094 15.6145 15.094 15.3125C15.094 15.0105 14.8491 14.7656 14.5471 14.7656Z" fill="white"/>
<path d="M26.8517 7.12706C26.3204 6.82032 25.7014 6.73883 25.1087 6.89759C24.5161 7.0564 24.0208 7.43648 23.7141 7.96777L16.8321 19.8876C16.7944 19.953 16.7706 20.0254 16.7622 20.1004L16.2778 24.4395C16.2537 24.6554 16.3597 24.8652 16.5478 24.9738C16.6328 25.0228 16.7271 25.0471 16.8212 25.0471C16.9356 25.0471 17.0496 25.0113 17.1456 24.9406L20.6611 22.3515C20.7219 22.3067 20.7727 22.2499 20.8104 22.1846L27.6923 10.2647C28.3256 9.16789 27.9485 7.76034 26.8517 7.12706ZM17.5034 23.3186L17.7564 21.0528L19.3392 21.9666L17.5034 23.3186ZM20.1367 21.164L18.0528 19.9609L23.5754 10.3955L25.6593 11.5986L20.1367 21.164ZM26.7451 9.71777L26.2061 10.6515L24.1222 9.44833L24.6613 8.51465C24.8219 8.23634 25.0814 8.03728 25.3918 7.9541C25.7023 7.87086 26.0265 7.91363 26.3047 8.0743C26.583 8.23497 26.7821 8.49441 26.8653 8.80482C26.9485 9.11522 26.9058 9.43947 26.7451 9.71777Z" fill="white"/>
</svg>
