<svg width="12" height="12" viewBox="0 0 12 12" fill="none" xmlns="http://www.w3.org/2000/svg">
<path d="M10.9284 10.7146C11.1982 10.7146 11.4319 10.6255 11.6306 10.4497L8.2308 7.04974C8.14923 7.10815 8.07017 7.16495 7.99548 7.21896C7.74106 7.40641 7.53456 7.55269 7.376 7.65751C7.21746 7.76256 7.00652 7.86964 6.74321 7.97897C6.47972 8.08842 6.23425 8.14298 6.00653 8.14298H5.99987H5.9932C5.76546 8.14298 5.51999 8.08845 5.25653 7.97897C4.99306 7.86964 4.78212 7.76256 4.62373 7.65751C4.46519 7.55269 4.25881 7.40644 4.00425 7.21896C3.93331 7.16696 3.85464 7.1099 3.76959 7.04883L0.369141 10.4497C0.567813 10.6255 0.801694 10.7146 1.07141 10.7146H10.9284Z" fill="#BF0B2A"/>
<path d="M0.676411 4.90884C0.422008 4.73923 0.196407 4.54498 0 4.32617V9.4989L2.99656 6.50232C2.39708 6.0838 1.62468 5.55325 0.676411 4.90884Z" fill="#BF0B2A"/>
<path d="M11.3301 4.90884C10.418 5.52618 9.64281 6.05765 9.00439 6.50351L11.9998 9.49901V4.32617C11.8077 4.54057 11.5845 4.73469 11.3301 4.90884Z" fill="#BF0B2A"/>
<path d="M10.9284 1.28613H1.07136C0.727479 1.28613 0.463098 1.40226 0.277889 1.63426C0.0925281 1.86638 0 2.15666 0 2.50479C0 2.78599 0.12279 3.09068 0.36826 3.41894C0.613731 3.74707 0.874932 4.00481 1.15173 4.19228C1.30348 4.29949 1.76108 4.61762 2.52455 5.14656C2.93669 5.43216 3.29511 5.6811 3.6031 5.89591C3.86563 6.07883 4.09204 6.23725 4.27897 6.36871C4.30043 6.38376 4.33418 6.4079 4.37897 6.43993C4.42723 6.47459 4.4883 6.51858 4.56364 6.57298C4.70871 6.6779 4.82924 6.76272 4.92523 6.82751C5.02109 6.89233 5.13724 6.96472 5.27349 7.04512C5.40964 7.1254 5.53805 7.18577 5.65857 7.22593C5.77912 7.26606 5.89071 7.28619 5.99337 7.28619H6.00003H6.0067C6.10934 7.28619 6.22095 7.26606 6.34152 7.22593C6.46202 7.18577 6.59032 7.12553 6.72658 7.04512C6.8627 6.96472 6.97869 6.89217 7.07486 6.82751C7.17085 6.76272 7.29137 6.67792 7.43647 6.57298C7.51166 6.51858 7.57273 6.47457 7.62098 6.44004C7.6658 6.40788 7.69953 6.38389 7.72112 6.36871C7.86674 6.26738 8.09367 6.10962 8.39877 5.89777C8.95394 5.51203 9.77155 4.94429 10.855 4.19228C11.1809 3.96468 11.4532 3.69001 11.672 3.36868C11.8904 3.04735 11.9999 2.71029 11.9999 2.3576C11.9999 2.06294 11.8937 1.8108 11.6818 1.6008C11.4697 1.39106 11.2185 1.28613 10.9284 1.28613Z" fill="#BF0B2A"/>
</svg>
