<svg width="101" height="96" viewBox="0 0 101 96" fill="none" xmlns="http://www.w3.org/2000/svg">
<g clip-path="url(#clip0)">
<path d="M49.7341 0C50.0116 0 50.289 0 50.5665 0C50.761 0.0176301 50.9549 0.0459538 51.1497 0.050867C53.5436 0.112139 55.924 0.313584 58.2905 0.686994C62.3026 1.31994 66.1876 2.40434 69.9353 3.9685C77.4832 7.11879 83.9312 11.7853 89.1908 18.0578C94.2757 24.1223 97.6697 31.0205 99.2795 38.7818C99.6908 40.7642 99.976 42.7644 100.095 44.7858C100.146 45.6506 100.151 46.5176 100.181 47.3835C100.186 47.5434 100.214 47.7023 100.231 47.8616C100.231 47.9772 100.231 48.0928 100.231 48.2084C100.213 48.3673 100.185 48.526 100.18 48.6853C100.15 49.5399 100.146 50.3957 100.095 51.2488C99.9572 53.5488 99.6095 55.8199 99.1069 58.0676C98.3451 61.4757 97.2052 64.7535 95.6971 67.9023C93.7017 72.0685 91.1468 75.8615 88.0555 79.2925C84.5301 83.2055 80.4806 86.474 75.9231 89.1107C71.2471 91.8162 66.2624 93.7248 60.9789 94.8512C59.1136 95.2488 57.2332 95.5546 55.3329 95.722C54.2746 95.815 53.2127 95.867 52.1526 95.941C52.0162 95.9506 51.8812 95.98 51.7454 96.0006C50.6818 96.0006 49.6182 96.0006 48.5546 96.0006C48.4188 95.9803 48.2838 95.9517 48.1474 95.9413C46.8803 95.8451 45.611 95.7748 44.3465 95.6526C42.1243 95.4379 39.9338 95.0277 37.7668 94.4945C32.3584 93.1642 27.2942 91.0214 22.5965 88.0275C15.8575 83.7327 10.4139 78.1749 6.38815 71.261C2.55058 64.6691 0.448266 57.559 0.128902 49.9298C0.106647 49.4012 0.0439306 48.8746 0 48.3468C0 48.1156 0 47.8844 0 47.6532C0.0196532 47.5182 0.0485549 47.3841 0.0575145 47.2486C0.131792 46.1303 0.190173 45.0113 0.277168 43.8942C0.431792 41.9107 0.752023 39.9512 1.18526 38.0101C2.21156 33.4095 3.90954 29.0694 6.2604 24.9855C9.12659 20.0066 12.7743 15.6795 17.1699 11.9844C22.635 7.39075 28.8069 4.11474 35.6538 2.1052C38.2977 1.32919 40.9899 0.780925 43.7237 0.441329C45.5714 0.21185 47.4277 0.0867052 49.2896 0.0479769C49.4379 0.0447977 49.5858 0.016474 49.7341 0ZM50.1298 90.6087C53.1564 90.6153 56.1555 90.3289 59.1234 89.7454C64.4003 88.7078 69.3572 86.824 73.9584 84.0338C80.6627 79.9679 85.9835 74.5532 89.7763 67.6734C92.8746 62.0532 94.5497 56.0263 94.811 49.6144C94.9546 46.0876 94.6384 42.5971 93.863 39.1503C92.5549 33.3367 90.0844 28.061 86.5118 23.3003C83.2283 18.9246 79.2494 15.2994 74.6116 12.4026C67.8647 8.18844 60.5012 5.92428 52.5694 5.48468C50.4436 5.36676 48.3188 5.41474 46.196 5.5948C44.5595 5.73353 42.935 5.95087 41.3237 6.26098C37.448 7.00751 33.7214 8.21705 30.1673 9.93642C22.7127 13.5422 16.6442 18.7491 12.1168 25.7012C8.26821 31.6104 6.0763 38.0928 5.56272 45.1303C5.29971 48.7344 5.52428 52.3127 6.2237 55.8607C7.23006 60.9659 9.14046 65.7107 11.952 70.0835C16.4321 77.0514 22.4439 82.311 29.8691 85.9511C36.2543 89.0815 43.0246 90.5867 50.1298 90.6087Z" fill="#BF0B2A"/>
<path d="M52.5471 14.1231C52.5471 22.1621 52.5471 30.1665 52.5471 38.2121C52.7107 38.1245 52.7454 37.9858 52.8066 37.8763C54.309 35.1818 55.8084 32.4855 57.3084 29.7896C57.7465 29.002 58.2014 28.2231 58.6191 27.4248C59.1535 26.4029 60.1049 26.0725 61.1587 26.2523C61.6942 26.3436 62.165 26.5861 62.5529 26.9754C62.9474 27.3714 63.1384 27.8543 63.1627 28.4075C63.1676 28.5228 63.1659 28.6387 63.1659 28.7543C63.1659 41.6786 63.1662 54.6032 63.1644 67.5274C63.1644 67.7696 63.1598 68.0141 63.1266 68.2532C62.9555 69.4849 61.8838 70.3526 60.6361 70.2797C59.3954 70.2072 58.4379 69.2141 58.4075 67.967C58.4038 67.8167 58.4055 67.6664 58.4055 67.5162C58.4055 57.7245 58.4055 47.9329 58.4055 38.1416C58.4055 38.0156 58.4055 37.8896 58.4055 37.7361C58.2387 37.7913 58.2139 37.9283 58.1575 38.0292C56.6829 40.6734 55.2116 43.3196 53.739 45.9653C53.3737 46.6217 53.0017 47.2743 52.6428 47.9341C52.5795 48.05 52.5514 48.1904 52.5315 48.3234C52.513 48.448 52.5272 48.5771 52.5272 48.7043C52.5272 55.0046 52.5277 61.3049 52.5248 67.6055C52.5248 67.8818 52.5246 68.1653 52.4668 68.4329C52.2101 69.6205 51.1321 70.3818 49.8942 70.2714C48.7451 70.1688 47.8433 69.211 47.7844 68.0274C47.7763 67.8659 47.7769 67.7037 47.7769 67.5422C47.7766 61.3344 47.7743 55.1266 47.7815 48.9185C47.7821 48.493 47.7017 48.128 47.4803 47.7468C46.6101 46.2482 45.7844 44.7237 44.9419 43.2089C43.987 41.4922 43.0318 39.7757 42.076 38.0598C42.0168 37.9534 41.9491 37.8514 41.8855 37.7474C41.8618 37.7523 41.8379 37.7572 41.8142 37.7621C41.8142 37.9058 41.8142 38.0494 41.8142 38.193C41.8142 47.9962 41.8144 57.7994 41.8121 67.6023C41.8121 67.8555 41.8072 68.1133 41.7613 68.3607C41.5347 69.574 40.4618 70.3737 39.2147 70.2743C38.0338 70.18 37.1012 69.1971 37.0555 67.9971C37.0503 67.8586 37.052 67.7196 37.052 67.5809C37.0517 54.6335 37.0517 41.6858 37.0529 28.7384C37.0529 28.5309 37.0477 28.3196 37.0821 28.1165C37.2494 27.1274 38.0939 26.3688 39.1722 26.2323C39.711 26.1641 40.2329 26.2153 40.7191 26.4855C41.1185 26.7075 41.3821 27.0477 41.5994 27.4396C42.8939 29.7743 44.1933 32.1063 45.491 34.4393C46.1653 35.6511 46.839 36.8633 47.5136 38.0748C47.5685 38.1734 47.6275 38.2696 47.6801 38.3595C47.7165 38.352 47.7277 38.3517 47.737 38.3468C47.7462 38.3422 47.7604 38.3332 47.7604 38.326C47.7662 30.3731 47.7714 22.4202 47.7754 14.467C47.7754 14.365 47.765 14.263 47.7572 14.1179C47.4824 14.1309 47.2222 14.1323 46.9639 14.1569C44.7861 14.3633 42.6384 14.7384 40.5283 15.3182C34.8864 16.8682 29.8384 19.5182 25.4821 23.4477C25.2503 23.6566 25.0286 23.8771 24.7922 24.0806C23.4052 25.2745 21.2728 24.5563 20.9168 22.7618C20.7448 21.8951 20.9916 21.1257 21.654 20.5297C22.4957 19.7722 23.3327 19.0055 24.2196 18.3032C28.8983 14.5962 34.1503 12.0402 39.9272 10.556C43.4275 9.65691 46.9867 9.20027 50.5994 9.26009C58.3092 9.38755 65.4555 11.4878 72.0491 15.4786C74.4116 16.9084 76.5922 18.5766 78.5988 20.474C79.1309 20.9771 79.4454 21.5688 79.4318 22.3081C79.4139 23.2745 78.9653 23.9945 78.1038 24.4191C77.2396 24.8451 76.4003 24.7381 75.6205 24.1757C75.5179 24.1017 75.426 24.0121 75.3332 23.9254C70.8061 19.6962 65.5176 16.8514 59.5451 15.2563C57.3301 14.6647 55.0786 14.2797 52.7896 14.1237C52.7222 14.1191 52.6543 14.1231 52.5471 14.1231Z" fill="#BF0B2A"/>
<path d="M84.6987 44.9447C84.7967 45.0267 84.8828 45.101 84.971 45.1724C86.8918 46.7207 88.3797 48.6123 89.4704 50.8224C90.9112 53.7412 91.1545 56.7672 90.2973 59.8944C88.9473 64.8198 84.8363 68.6516 79.821 69.6126C76.6961 70.2114 73.7736 69.6793 71.1218 67.8779C69.4311 66.7293 68.1799 65.1886 67.2276 63.3941C67.1195 63.1903 67.0123 62.9843 66.9236 62.7715C66.4334 61.597 66.9398 60.2559 68.0718 59.716C69.2227 59.1675 70.5577 59.5955 71.1843 60.71C71.4447 61.1727 71.686 61.6496 71.9846 62.0871C73.7716 64.7048 76.5366 65.5949 79.4551 64.8282C82.7571 63.9608 85.2956 61.1519 85.8915 57.8036C86.2005 56.0678 85.9805 54.4227 85.1831 52.8551C84.0678 50.6629 82.4635 48.9348 80.2878 47.7643C79.3201 47.2438 78.2912 46.9192 77.1805 46.8903C76.9273 46.8837 76.6742 46.8478 76.4224 46.814C75.8981 46.7438 75.4964 46.475 75.2094 46.0343C74.6028 45.1022 74.701 43.5614 75.4233 42.7114C75.7542 42.3221 76.1713 42.0955 76.6903 42.0955C77.0369 42.0955 77.3877 42.0843 77.7291 42.1319C78.4198 42.2288 79.0895 42.1288 79.7554 41.9733C80.5505 41.7877 81.2901 41.4681 81.9669 41.0085C83.7617 39.79 84.4716 37.8019 83.8542 35.7247C83.208 33.5502 81.1984 32.0484 78.9294 32.045C76.7129 32.0415 74.6788 33.5299 74.0077 35.6464C73.9658 35.7785 73.9285 35.9123 73.8817 36.0426C73.5256 37.0314 72.5747 37.6741 71.5505 37.6213C70.4759 37.5658 69.6126 36.8623 69.3508 35.8239C69.2531 35.436 69.256 35.0452 69.358 34.6582C69.8739 32.6996 70.9088 31.0585 72.4377 29.7406C74.3424 28.099 76.5609 27.2591 79.0823 27.2863C83.7002 27.3357 87.8172 30.775 88.6343 35.3042C89.3294 39.1574 88.0666 42.2825 84.9906 44.6871C84.9088 44.751 84.8253 44.8132 84.7435 44.877C84.7351 44.8834 84.7308 44.8958 84.6987 44.9447Z" fill="#BF0B2A"/>
<path d="M27.8846 50.6916C27.6869 50.6916 27.5508 50.6916 27.4146 50.6916C25.299 50.6916 23.1837 50.6954 21.0681 50.687C20.7826 50.6858 20.4869 50.6584 20.2135 50.5812C19.0751 50.2595 18.3774 49.1549 18.5337 47.961C18.6791 46.8523 19.6528 45.9688 20.7938 45.935C21.4638 45.9153 22.1346 45.9286 22.8051 45.9283C24.3542 45.9277 25.9034 45.928 27.4522 45.928C27.5768 45.928 27.7014 45.928 27.8574 45.928C27.8447 45.6962 27.8401 45.504 27.823 45.3127C27.5427 42.1494 26.8863 39.0792 25.5323 36.1864C24.9415 34.9246 24.2277 33.739 23.2603 32.7225C22.7953 32.2338 22.2777 31.8118 21.6719 31.5055C20.7118 31.0199 19.745 31.0017 18.7678 31.4529C18.0531 31.7829 17.4508 32.2633 16.9242 32.8405C16.5895 33.2075 16.204 33.4899 15.7222 33.626C14.704 33.9136 13.6282 33.5012 13.0646 32.6101C12.495 31.7092 12.5855 30.5659 13.3109 29.7488C14.1779 28.772 15.1811 27.9604 16.3389 27.3497C17.2566 26.8656 18.2282 26.5445 19.2623 26.4208C20.7857 26.2384 22.2323 26.5052 23.6112 27.1604C24.9918 27.8162 26.1346 28.7792 27.1329 29.9234C28.4537 31.4373 29.4323 33.1604 30.2138 35.0006C31.2678 37.4832 31.9262 40.0754 32.3132 42.7399C32.6866 45.3104 32.8013 47.8936 32.6528 50.4864C32.4519 53.991 31.8326 57.4136 30.5802 60.7052C29.7987 62.759 28.7941 64.6905 27.3878 66.3939C26.3383 67.665 25.121 68.7324 23.6224 69.4514C22.3675 70.0535 21.0444 70.335 19.6554 70.2376C18.2317 70.1379 16.93 69.6569 15.7305 68.8907C14.2251 67.9289 13.0225 66.659 12.0297 65.1893C11.6037 64.5587 11.2031 63.9043 10.8583 63.2266C10.1514 61.8376 10.8849 60.2367 12.3716 59.8439C13.4077 59.5702 14.4777 60.0315 15.0409 60.9838C15.382 61.5601 15.7201 62.1396 16.0907 62.6968C16.5083 63.3248 17.0115 63.8855 17.5935 64.3673C17.8597 64.5876 18.1418 64.7939 18.4378 64.972C19.6196 65.6829 20.8031 65.6558 21.9774 64.9433C22.8748 64.3991 23.5626 63.6402 24.1641 62.7962C25.1722 61.3815 25.8831 59.8188 26.4381 58.1806C27.0629 56.3361 27.4707 54.4425 27.6944 52.5087C27.7618 51.9246 27.8172 51.339 27.8846 50.6916Z" fill="#BF0B2A"/>
<path d="M50.5522 86.79C42.819 86.7233 35.9632 84.8952 29.571 81.3267C26.7123 79.7311 24.084 77.8175 21.708 75.5603C21.1779 75.0565 20.8621 74.4678 20.8759 73.727C20.8944 72.7444 21.3525 72.0175 22.2323 71.6007C23.0996 71.19 23.9412 71.3033 24.7129 71.8793C24.8144 71.955 24.9054 72.0452 24.9985 72.1316C29.958 76.7455 35.7794 79.7036 42.3762 81.1681C45.4965 81.8605 48.656 82.1311 51.8467 81.9764C56.0855 81.7712 60.1684 80.8455 64.104 79.2597C67.8126 77.7655 71.1927 75.7319 74.2207 73.1186C74.658 72.7412 75.0716 72.3366 75.508 71.9579C76.4756 71.1186 77.8901 71.1782 78.7696 72.0857C79.6751 73.0201 79.6826 74.512 78.7268 75.4221C77.8907 76.2178 77.0236 76.9874 76.1193 77.7042C71.1314 81.6579 65.515 84.3082 59.3158 85.7319C57.3658 86.1799 55.3947 86.4975 53.3979 86.6357C52.3155 86.7111 51.2303 86.7542 50.5522 86.79Z" fill="#BF0B2A"/>
</g>
<defs>
<clipPath id="clip0">
<rect width="100.231" height="96" fill="white"/>
</clipPath>
</defs>
</svg>
