<svg width="85" height="33" fill="none" xmlns="http://www.w3.org/2000/svg"><rect width="85" height="33" rx="5" fill="#D2D2D6"/><path fill-rule="evenodd" clip-rule="evenodd" d="M25.397 22.116c-.196.724-.476 1.1-1.377 1.308-1.997.381-3.994.48-5.992.48-1.996 0-3.994-.099-5.99-.48-.902-.208-1.182-.584-1.378-1.308-.395-2.027-.496-4.055-.495-6.082-.001-2.027.1-4.054.495-6.082.196-.724.476-1.1 1.377-1.308 1.997-.381 3.995-.48 5.992-.48 1.997 0 3.994.099 5.99.48.903.208 1.182.584 1.378 1.308.395 2.027.496 4.055.496 6.082s-.1 4.055-.496 6.082zm2.66-6.091a36.516 36.516 0 0 0-.579-6.453 3.706 3.706 0 0 0-2.905-2.977A36.529 36.529 0 0 0 18.043 6h-.029a36.52 36.52 0 0 0-6.53.595 3.706 3.706 0 0 0-2.905 2.977A36.505 36.505 0 0 0 8 16.025v.018c.001 2.15.192 4.302.579 6.453a3.706 3.706 0 0 0 2.905 2.977c2.177.396 4.353.593 6.53.595h.029a36.492 36.492 0 0 0 6.53-.595 3.706 3.706 0 0 0 2.905-2.977c.387-2.151.578-4.302.579-6.453v-.018z" fill="#BABAC0"/><path fill-rule="evenodd" clip-rule="evenodd" d="M23.126 19.382l-3.315-3.339 1.487-1.498c.112-.081.211-.18.29-.293l1.24-1.248c.312-.299.559-.6.559-1.032 0-.681-.552-1.233-1.233-1.233-.388 0-.703.194-.964.434l-.008.012-1.569 1.58-.005-.006-1.528 1.54-1.528-1.54-.006.006-1.568-1.58-.008-.007c-.305-.29-.576-.44-.964-.44-.68 0-1.233.553-1.233 1.234 0 .432.272.723.56 1.032l1.238 1.248c.08.114.178.212.291.293l1.487 1.498-3.315 3.34-.002-.008c-.171.212-.26.501-.26.795 0 .68.553 1.233 1.233 1.233.436 0 .753-.246 1.037-.567l1.187-1.195c.155-.097.288-.225.387-.379l1.464-1.475 1.464 1.475c.099.154.232.282.387.379l1.187 1.196c.274.271.601.566 1.036.566.681 0 1.233-.552 1.233-1.233a1.24 1.24 0 0 0-.254-.785l-.007-.003zm53.851 1.292a1.166 1.166 0 0 0-.07-.293.373.373 0 0 0-.116-.162.252.252 0 0 0-.153-.051h-5.113v-3.389h4.417a.27.27 0 0 0 .153-.046.339.339 0 0 0 .116-.153 1.06 1.06 0 0 0 .07-.283c.015-.118.023-.266.023-.446 0-.173-.008-.32-.023-.44a1.08 1.08 0 0 0-.07-.289.377.377 0 0 0-.116-.158.253.253 0 0 0-.153-.05h-4.417V11.98H76.6a.235.235 0 0 0 .149-.05.397.397 0 0 0 .11-.163 1.15 1.15 0 0 0 .07-.293c.016-.12.024-.268.024-.44a3.7 3.7 0 0 0-.023-.46 1.228 1.228 0 0 0-.07-.297.358.358 0 0 0-.111-.163.25.25 0 0 0-.149-.046h-6.784a.76.76 0 0 0-.515.18c-.14.121-.21.318-.21.59V21.31c0 .272.07.469.21.59a.76.76 0 0 0 .515.18h6.821a.252.252 0 0 0 .153-.05.37.37 0 0 0 .116-.163c.031-.074.055-.172.07-.293.016-.12.023-.27.023-.45s-.007-.33-.023-.45zM65.14 10.995a1.94 1.94 0 0 0-.429-.297 4.257 4.257 0 0 0-.771-.32c-.31-.1-.672-.184-1.087-.253a8.446 8.446 0 0 0-1.38-.104c-.92 0-1.754.142-2.502.424a5.301 5.301 0 0 0-1.916 1.222 5.45 5.45 0 0 0-1.227 1.94c-.289.76-.433 1.618-.433 2.574 0 .926.135 1.754.406 2.485a5.05 5.05 0 0 0 1.172 1.857 5.062 5.062 0 0 0 1.871 1.164c.737.267 1.571.401 2.503.401a10.023 10.023 0 0 0 2.787-.396 8.1 8.1 0 0 0 .726-.244c.195-.078.325-.185.388-.32.063-.136.094-.293.094-.474v-4.802c0-.12-.015-.227-.045-.32a.675.675 0 0 0-.13-.239.56.56 0 0 0-.456-.198h-3.94a.229.229 0 0 0-.145.05.388.388 0 0 0-.109.153c-.03.069-.052.16-.067.275a3.348 3.348 0 0 0-.023.423c0 .325.03.555.09.69.06.136.144.203.253.203h2.21v2.863c-.223.12-.463.211-.722.271-.258.06-.52.09-.785.09-.54 0-1.035-.087-1.483-.261a3.071 3.071 0 0 1-1.15-.776 3.57 3.57 0 0 1-.744-1.276c-.178-.508-.267-1.096-.267-1.763 0-.608.088-1.162.262-1.664.175-.502.424-.932.749-1.29a3.335 3.335 0 0 1 1.172-.83 3.863 3.863 0 0 1 1.534-.293c.528 0 .993.054 1.393.162.4.109.744.226 1.032.352.289.127.52.244.695.352.174.108.3.162.379.162.054 0 .1-.015.14-.045a.338.338 0 0 0 .099-.158c.027-.075.048-.175.063-.302.015-.126.022-.276.022-.45 0-.301-.018-.528-.054-.682a.743.743 0 0 0-.175-.356zm-19.332 6.47l1.685-5.067h.01l1.686 5.068h-3.382zm3.482-6.892a.886.886 0 0 0-.134-.276.476.476 0 0 0-.257-.152 2.31 2.31 0 0 0-.503-.064c-.215-.01-.504-.014-.866-.014-.313 0-.565.004-.756.014-.19.009-.339.03-.446.064a.458.458 0 0 0-.235.147.915.915 0 0 0-.129.254l-3.677 10.578c-.073.215-.12.387-.138.516-.018.129.003.229.064.3.062.07.172.114.332.133.16.018.381.028.664.028.264 0 .477-.007.64-.019a1.39 1.39 0 0 0 .378-.069.394.394 0 0 0 .193-.138.726.726 0 0 0 .097-.217l.756-2.331h4.478l.801 2.396c.025.08.056.144.093.193.037.05.1.088.193.115.092.028.226.047.401.056a14.682 14.682 0 0 0 1.442-.01c.172-.015.291-.055.36-.12.067-.064.092-.16.073-.29a3.195 3.195 0 0 0-.138-.525L49.29 10.573zm-11.213 4.178a1.904 1.904 0 0 1-.38.678 1.672 1.672 0 0 1-.645.44c-.264.106-.59.159-.98.159h-1.647v-4.076h1.59c.255 0 .5.017.74.051.237.034.465.116.681.246.217.13.4.331.548.604.149.272.223.619.223 1.04 0 .309-.043.595-.13.858zm1.885-3.388a3.244 3.244 0 0 0-.943-.729 4.094 4.094 0 0 0-1.09-.395 8.638 8.638 0 0 0-.924-.139 9.716 9.716 0 0 0-.812-.032H32.81c-.247 0-.447.072-.598.218-.152.145-.228.363-.228.654v10.806c0 .062.018.118.056.167a.38.38 0 0 0 .195.12c.093.032.218.056.376.075.157.019.354.028.59.028.24 0 .439-.01.594-.028a1.96 1.96 0 0 0 .37-.074.422.422 0 0 0 .2-.12c.04-.05.06-.106.06-.168v-3.834h1.554c.792 0 1.48-.093 2.066-.278a4.052 4.052 0 0 0 1.48-.813c.403-.356.71-.794.92-1.314.21-.52.315-1.117.315-1.791 0-.489-.068-.93-.204-1.323a3.046 3.046 0 0 0-.594-1.03z" fill="#BABAC0"/></svg>