<svg width="70" height="70" fill="none" xmlns="http://www.w3.org/2000/svg"><g clip-path="url(#clip0)" fill="#BF0B2A" stroke="#fff" stroke-width=".5"><path d="M58.352 43.515l-.093.14.095.139L69.04 59.378l-12.025-2.242-.245-.046-.046.246-2.242 12.025-10.059-14.67-.107-.156-.18.062a27.812 27.812 0 0 1-9.137 1.536c-3.198 0-6.272-.542-9.137-1.536l-.18-.062-.108.157L15.516 69.36l-2.242-12.025-.046-.246-.245.046L.957 59.378l10.686-15.584.095-.139-.093-.14A27.778 27.778 0 0 1 7.058 28.19C7.058 12.785 19.592.25 34.998.25c15.408 0 27.943 12.535 27.943 27.941 0 5.655-1.69 10.92-4.59 15.324zM17.365 59.498l.11.594.342-.498 4.314-6.29.16-.233-.25-.13a28.127 28.127 0 0 1-7.766-6.029l-.213-.235-.179.261-4.644 6.774-.341.498.593-.11 6.637-1.239 1.237 6.637zm35.267 0l1.238-6.637 6.637 1.238.594.11-.342-.498-4.644-6.773-.18-.26-.212.234a28.126 28.126 0 0 1-7.766 6.028l-.249.131.159.232 4.314 6.29.34.498.111-.593zM35 3.876c-13.408 0-24.316 10.908-24.316 24.315C10.683 41.6 21.591 52.508 35 52.508S59.315 41.6 59.315 28.19C59.315 14.784 48.407 3.876 35 3.876z"/><path d="M29.797 34.56l.176.176.177-.176 16.583-16.582 2.563 2.563-19.323 19.323-9.27-9.271 2.563-2.564 6.53 6.53z"/></g><defs><clipPath id="clip0"><path fill="#fff" d="M0 0h70v70H0z"/></clipPath></defs></svg>