<svg width="31" height="31" fill="none" xmlns="http://www.w3.org/2000/svg"><g clip-path="url(#clip0)"><path d="M16.5 0C10.125 0 4.94 5.188 4.94 11.565c0 9.5 10.409 18.778 10.852 19.168a1.068 1.068 0 0 0 1.415 0c.443-.39 10.853-9.667 10.853-19.168C28.06 5.188 22.874 0 16.5 0zm0 8.318c1.77 0 3.21 1.457 3.21 3.247 0 1.79-1.44 3.246-3.21 3.246-1.771 0-3.212-1.456-3.212-3.246s1.44-3.247 3.212-3.247z" fill="#BF0B2A"/></g><defs><clipPath id="clip0"><path fill="#fff" d="M0 0h31v31H0z"/></clipPath></defs></svg>