<svg width="12" height="12" fill="none" xmlns="http://www.w3.org/2000/svg"><path d="M10.928 10.715c.27 0 .504-.09.703-.265l-3.4-3.4-.236.169c-.254.187-.46.334-.619.439-.159.105-.37.212-.633.321-.263.11-.509.164-.736.164h-.014c-.228 0-.473-.055-.736-.164a3.805 3.805 0 0 1-.633-.321 15.776 15.776 0 0 1-.62-.439l-.234-.17-3.4 3.4c.198.177.432.266.701.266h9.857zM.676 4.909A3.55 3.55 0 0 1 0 4.326V9.5l2.997-2.997c-.6-.418-1.372-.949-2.32-1.593zm10.654 0a196.96 196.96 0 0 0-2.326 1.595L12 9.499V4.326a3.698 3.698 0 0 1-.67.583z" fill="#BF0B2A"/><path d="M10.928 1.286H1.071c-.344 0-.608.116-.793.348-.185.232-.278.523-.278.87 0 .282.123.587.368.915.246.328.507.586.784.773.151.107.61.426 1.373.955a443.36 443.36 0 0 1 1.754 1.222l.1.07.185.134a7.345 7.345 0 0 0 .709.472c.137.08.265.14.386.18.12.041.232.061.334.061h.014c.102 0 .214-.02.335-.06.12-.04.248-.1.385-.18a7.147 7.147 0 0 0 .71-.473 45.662 45.662 0 0 1 .284-.204l.678-.471 2.456-1.706a3.18 3.18 0 0 0 .817-.823c.218-.322.328-.659.328-1.011 0-.295-.106-.547-.318-.757a1.036 1.036 0 0 0-.754-.315z" fill="#BF0B2A"/></svg>