<svg width="28" height="28" fill="none" xmlns="http://www.w3.org/2000/svg"><path d="M22.641 8.135a.547.547 0 0 0 .547-.547V1.64c0-.905-.736-1.641-1.64-1.641H1.64A1.643 1.643 0 0 0 .001 1.64v24.72A1.64 1.64 0 0 0 1.64 28h19.906c.905 0 1.641-.736 1.641-1.64v-4.03a.547.547 0 0 0-1.094 0v4.03a.547.547 0 0 1-.547.546H1.641a.547.547 0 0 1-.547-.547V1.641c0-.302.246-.547.547-.547h19.906c.302 0 .547.245.547.547v5.947c0 .302.245.547.547.547z" fill="#fff"/><path d="M11.594 2.953a5.037 5.037 0 0 0-5.031 5.031A5.018 5.018 0 0 0 8.2 11.696a5.012 5.012 0 0 0 3.393 1.32 5.012 5.012 0 0 0 3.452-1.375 5.017 5.017 0 0 0 1.58-3.657 5.037 5.037 0 0 0-5.032-5.03zm0 8.969a3.92 3.92 0 0 1-2.378-.802 2.717 2.717 0 0 1 2.378-1.386c1 0 1.898.533 2.378 1.386a3.916 3.916 0 0 1-2.378.802zm-.875-4.156V7.41a.876.876 0 0 1 1.75 0v.356a.876.876 0 0 1-1.75 0zm4.044 2.553a3.794 3.794 0 0 0-1.612-1.351c.258-.333.412-.75.412-1.202V7.41a1.97 1.97 0 0 0-1.969-1.969 1.97 1.97 0 0 0-1.969 1.97v.355c0 .452.154.87.412 1.202a3.794 3.794 0 0 0-1.612 1.35 3.916 3.916 0 0 1-.769-2.334 3.942 3.942 0 0 1 3.938-3.937 3.942 3.942 0 0 1 3.938 3.937 3.92 3.92 0 0 1-.77 2.335zm-.216 13.634h-2.953a.547.547 0 0 0 0 1.094h2.953a.547.547 0 0 0 0-1.094zm0-3.063H6.781a.547.547 0 0 0 0 1.094h7.766a.547.547 0 0 0 0-1.093zm0-3.062H6.781a.547.547 0 0 0 0 1.094h7.766a.547.547 0 0 0 0-1.094zm-9.715-2.902a.55.55 0 0 0-.773 0 .55.55 0 0 0 .387.934.551.551 0 0 0 .547-.547.55.55 0 0 0-.16-.387zm0 3.062a.552.552 0 0 0-.387-.16.55.55 0 0 0-.547.547.55.55 0 0 0 .547.547.551.551 0 0 0 .547-.547.55.55 0 0 0-.16-.387zm0 3.062a.552.552 0 0 0-.387-.16.55.55 0 0 0-.547.547.55.55 0 0 0 .547.547.55.55 0 0 0 .548-.547.55.55 0 0 0-.16-.386zm9.715-6.284H6.781a.547.547 0 0 0 0 1.093h7.766a.547.547 0 0 0 0-1.093zm12.305-7.639a2.282 2.282 0 0 0-1.743-.23 2.282 2.282 0 0 0-1.395 1.07l-6.882 11.92a.548.548 0 0 0-.07.213l-.484 4.34a.547.547 0 0 0 .868.5l3.515-2.588a.547.547 0 0 0 .15-.167l6.881-11.92a2.3 2.3 0 0 0-.84-3.138zM17.503 23.32l.253-2.266 1.583.914-1.836 1.352zm2.634-2.155l-2.084-1.203 5.522-9.565 2.084 1.203-5.522 9.565zm6.608-11.446l-.539.934-2.084-1.204.54-.933c.16-.279.42-.478.73-.56a1.19 1.19 0 0 1 .913.12c.278.16.477.42.56.73.084.31.04.634-.12.913z" fill="#fff"/></svg>